                                                                        S      1
1H,,1H;,75HC:\OneHistory\OneHistory-Projects\2026-013-NXUGѧϰ\5-Module-G      1
NX\_model2.prt,75HC:\OneHistory\OneHistory-Projects\2026-013-NXUGѧϰ\5-G      2
Module-NX\_model2.igs,8HNX V10.0,28HSIEMENS PLM Software NX 10.0,32,38, G      3
16,38,16,75HC:\OneHistory\OneHistory-Projects\2026-013-NXUGѧϰ\5-ModuleG      4
-NX\_model2.prt,1.0,2,2HMM,300,2.0,15H20260619.011608,1.0E-005,10000.0,,G      5
,11,0,15H20260619.010600;                                               G      6
     406       1               1       1       0       0           10000D      1
     406      27       0       1       1                               0D      2
     406       2               1      -1       0       0                D      3
     406      27       0       1       3                               0D      4
     406       3               1       1       0       0           10000D      5
     406      27       0       1       1                               0D      6
     406       4               1      -5       0       0                D      7
     406      27       0       1       3                               0D      8
     406       5               1       1       0       0           10000D      9
     406      27       0       1       1                               0D     10
     406       6               1      -9       0       0                D     11
     406      27       0       1       3                               0D     12
     406       7               1       1       0       0           10000D     13
     406      27       0       1       1                               0D     14
     406       8               1     -13       0       0                D     15
     406      27       0       1       3                               0D     16
     406       9               1       1       0       0           10000D     17
     406      27       0       1       1                               0D     18
     406      10               1     -17       0       0                D     19
     406      27       0       1       3                               0D     20
     406      11               1       1       0       0           10000D     21
     406      27       0       1       1                               0D     22
     406      12               1     -21       0       0                D     23
     406      27       0       1       3                               0D     24
     406      13               1       1       0       0           10000D     25
     406      27       0       1       1                               0D     26
     406      14               1     -25       0       0                D     27
     406      27       0       1       3                               0D     28
     406      15               1       1       0       0           10000D     29
     406      27       0       1       1                               0D     30
     406      16               1     -29       0       0                D     31
     406      27       0       1       3                               0D     32
     406      17               1       1       0       0           10000D     33
     406      27       0       1       1                               0D     34
     406      18               1     -33       0       0                D     35
     406      27       0       1       3                               0D     36
     406      19               1       1       0       0           10000D     37
     406      27       0       1       1                               0D     38
     406      20               1     -37       0       0                D     39
     406      27       0       1       3                               0D     40
     406      21               1       1       0       0           10000D     41
     406      27       0       1       1                               0D     42
     406      22               1     -41       0       0                D     43
     406      27       0       1       3                               0D     44
     406      23               1       1       0       0           10000D     45
     406      27       0       1       1                               0D     46
     406      24               1     -45       0       0                D     47
     406      27       0       1       3                               0D     48
     406      25               1       1       0       0           10000D     49
     406      27       0       1       1                               0D     50
     406      26               1     -49       0       0                D     51
     406      27       0       1       3                               0D     52
     406      27               1       1       0       0           10000D     53
     406      27       0       1       1                               0D     54
     406      28               1     -53       0       0                D     55
     406      27       0       1       3                               0D     56
     406      29               1       1       0       0           10000D     57
     406      27       0       1       1                               0D     58
     406      30               1     -57       0       0                D     59
     406      27       0       1       3                               0D     60
     406      31               1       1       0       0           10000D     61
     406      27       0       1       1                               0D     62
     406      32               1     -61       0       0                D     63
     406      27       0       1       3                               0D     64
     406      33               1       1       0       0           10000D     65
     406      27       0       1       1                               0D     66
     406      34               1     -65       0       0                D     67
     406      27       0       1       3                               0D     68
     406      35               1       1       0       0           10000D     69
     406      27       0       1       1                               0D     70
     406      36               1     -69       0       0                D     71
     406      27       0       1       3                               0D     72
     406      37               1       1       0       0           10000D     73
     406      27       0       1       1                               0D     74
     406      38               1     -73       0       0                D     75
     406      27       0       1       3                               0D     76
     406      39               1       1       0       0           10000D     77
     406      27       0       1       1                               0D     78
     406      40               1     -77       0       0                D     79
     406      27       0       1       3                               0D     80
     406      41               1       1       0       0           10000D     81
     406      27       0       1       1                               0D     82
     406      42               1     -81       0       0                D     83
     406      27       0       1       3                               0D     84
     406      43               1       1       0       0           10000D     85
     406      27       0       1       1                               0D     86
     406      44               1     -85       0       0                D     87
     406      27       0       1       3                               0D     88
     406      45               1       1       0       0           10000D     89
     406      27       0       1       1                               0D     90
     406      46               1     -89       0       0                D     91
     406      27       0       1       3                               0D     92
     406      47               1       1       0       0           10000D     93
     406      27       0       1       1                               0D     94
     406      48               1     -93       0       0                D     95
     406      27       0       1       3                               0D     96
     406      49               1       1       0       0           10000D     97
     406      27       0       1       1                               0D     98
     406      50               1     -97       0       0                D     99
     406      27       0       1       3                               0D    100
     406      51               1       1       0       0           10000D    101
     406      27       0       1       1                               0D    102
     406      52               1    -101       0       0                D    103
     406      27       0       1       3                               0D    104
     124      53               1       1       0       0               0D    105
     124      27       0       1       0                               0D    106
     314      54               1       1       0       0             200D    107
     314      27       4       1       0                               0D    108
     116      55               1      61       0     105               0D    109
     116      27    -107       1       0                               0D    110
     108      56               1       1       0       0           10100D    111
     108      27       0       1       0                               0D    112
     108      57               1       1       0       0           10100D    113
     108      27       0       1       0                               0D    114
     108      58               1       1       0       0           10100D    115
     108      27       0       1       0                               0D    116
     108      59               1       1       0       0           10100D    117
     108      27       0       1       0                               0D    118
     406      60               1       1       0       0           10000D    119
     406      27       0       1      15                               0D    120
     410      61               1     256       0     105             100D    121
     410      27       0       1       0                     TOP       0D    122
     124      62               1       1       0       0               0D    123
     124      27       0       1       0                               0D    124
     108      63               1       1       0       0           10100D    125
     108      27       0       1       0                               0D    126
     108      64               1       1       0       0           10100D    127
     108      27       0       1       0                               0D    128
     108      65               1       1       0       0           10100D    129
     108      27       0       2       0                               0D    130
     108      67               1       1       0       0           10100D    131
     108      27       0       2       0                               0D    132
     406      69               1       1       0       0           10000D    133
     406      27       0       1      15                               0D    134
     410      70               1     256       0     123             100D    135
     410      27       0       1       0                   FRONT       0D    136
     124      71               1       1       0       0               0D    137
     124      27       0       1       0                               0D    138
     108      72               1       1       0       0           10100D    139
     108      27       0       1       0                               0D    140
     108      73               1       1       0       0           10100D    141
     108      27       0       1       0                               0D    142
     108      74               1       1       0       0           10100D    143
     108      27       0       2       0                               0D    144
     108      76               1       1       0       0           10100D    145
     108      27       0       2       0                               0D    146
     406      78               1       1       0       0           10000D    147
     406      27       0       1      15                               0D    148
     410      79               1     256       0     137             100D    149
     410      27       0       1       0                   RIGHT       0D    150
     124      80               1       1       0       0               0D    151
     124      27       0       1       0                               0D    152
     108      81               1       1       0       0           10100D    153
     108      27       0       1       0                               0D    154
     108      82               1       1       0       0           10100D    155
     108      27       0       1       0                               0D    156
     108      83               1       1       0       0           10100D    157
     108      27       0       2       0                               0D    158
     108      85               1       1       0       0           10100D    159
     108      27       0       2       0                               0D    160
     406      87               1       1       0       0           10000D    161
     406      27       0       1      15                               0D    162
     410      88               1     256       0     151             100D    163
     410      27       0       1       0                    BACK       0D    164
     124      89               1       1       0       0               0D    165
     124      27       0       1       0                               0D    166
     108      90               1       1       0       0           10100D    167
     108      27       0       1       0                               0D    168
     108      91               1       1       0       0           10100D    169
     108      27       0       1       0                               0D    170
     108      92               1       1       0       0           10100D    171
     108      27       0       1       0                               0D    172
     108      93               1       1       0       0           10100D    173
     108      27       0       1       0                               0D    174
     406      94               1       1       0       0           10000D    175
     406      27       0       1      15                               0D    176
     410      95               1     256       0     165             100D    177
     410      27       0       1       0                  BOTTOM       0D    178
     124      96               1       1       0       0               0D    179
     124      27       0       1       0                               0D    180
     108      97               1       1       0       0           10100D    181
     108      27       0       1       0                               0D    182
     108      98               1       1       0       0           10100D    183
     108      27       0       1       0                               0D    184
     108      99               1       1       0       0           10100D    185
     108      27       0       2       0                               0D    186
     108     101               1       1       0       0           10100D    187
     108      27       0       2       0                               0D    188
     406     103               1       1       0       0           10000D    189
     406      27       0       1      15                               0D    190
     410     104               1     256       0     179             100D    191
     410      27       0       1       0                    LEFT       0D    192
     124     105               1       1       0       0               0D    193
     124      27       0       3       0                               0D    194
     108     108               1       1       0       0           10100D    195
     108      27       0       2       0                               0D    196
     108     110               1       1       0       0           10100D    197
     108      27       0       2       0                               0D    198
     108     112               1       1       0       0           10100D    199
     108      27       0       3       0                               0D    200
     108     115               1       1       0       0           10100D    201
     108      27       0       3       0                               0D    202
     406     118               1       1       0       0           10000D    203
     406      27       0       1      15                               0D    204
     410     119               1     256       0     193             100D    205
     410      27       0       1       0                 TFR-ISO       0D    206
     124     120               1       1       0       0               0D    207
     124      27       0       3       0                               0D    208
     108     123               1       1       0       0           10100D    209
     108      27       0       3       0                               0D    210
     108     126               1       1       0       0           10100D    211
     108      27       0       3       0                               0D    212
     108     129               1       1       0       0           10100D    213
     108      27       0       3       0                               0D    214
     108     132               1       1       0       0           10100D    215
     108      27       0       3       0                               0D    216
     406     135               1       1       0       0           10000D    217
     406      27       0       1      15                               0D    218
     410     136               1     256       0     207             100D    219
     410      27       0       1       0                 TFR-TRI       0D    220
     124     137               1       1       0       0               0D    221
     124      27       0       1       0                               0D    222
     314     138               1       1       0       0             200D    223
     314      27       5       1       0                               0D    224
     128     139               1       1       0     105           10000D    225
     128      20    -223       9       0                               0D    226
     126     148               1       1       0       0           10500D    227
     126      20    -223       2       0                               0D    228
     126     150               1       1       0       0           10500D    229
     126      20    -223       2       0                               0D    230
     126     152               1       1       0       0           10500D    231
     126      20    -223       2       0                               0D    232
     126     154               1       1       0       0           10500D    233
     126      20    -223       2       0                               0D    234
     126     156               1       1       0       0           10500D    235
     126      20    -223       2       0                               0D    236
     126     158               1       1       0       0           10500D    237
     126      20    -223       2       0                               0D    238
     102     160               1       1       0     105           10500D    239
     102      20    -223       1       0                               0D    240
     100     161               1       1       0     221           10000D    241
     100      20    -223       2       0                               0D    242
     110     163               1       1       0     105           10000D    243
     110      20    -223       1       0                               0D    244
     100     164               1       1       0     123           10000D    245
     100      20    -223       2       0                               0D    246
     100     166               1       1       0     123           10000D    247
     100      20    -223       1       0                               0D    248
     110     167               1       1       0     105           10000D    249
     110      20    -223       1       0                               0D    250
     100     168               1       1       0     221           10000D    251
     100      20    -223       2       0                               0D    252
     102     170               1       1       0     105           10000D    253
     102      20    -223       1       0                               0D    254
     142     171               1       1       0       0           10500D    255
     142      20    -223       1       0                               0D    256
     144     172               1       1       0     105               0D    257
     144      20    -223       1       0                               0D    258
     128     173               1       1       0     105           10000D    259
     128      20    -223       3       0                               0D    260
     126     176               1       1       0       0           10500D    261
     126      20    -223      28       0                               0D    262
     100     204               1       1       0     221           10000D    263
     100      20    -223       2       0                               0D    264
     142     206               1       1       0       0           10500D    265
     142      20    -223       1       0                               0D    266
     144     207               1       1       0     105               0D    267
     144      20    -223       1       0                               0D    268
     128     208               1       1       0     105           10000D    269
     128      20    -223       3       0                               0D    270
     126     211               1       1       0       0           10500D    271
     126      20    -223      28       0                               0D    272
     100     239               1       1       0     221           10000D    273
     100      20    -223       2       0                               0D    274
     142     241               1       1       0       0           10500D    275
     142      20    -223       1       0                               0D    276
     144     242               1       1       0     105               0D    277
     144      20    -223       1       0                               0D    278
406,4,46,235,237,247,0,0;                                              1P      1
406,2,0,27H00_FINAL_DATA,00_FINAL_BODY,0,0;                            3P      2
406,4,46,235,237,247,0,0;                                              5P      3
406,2,0,26H00_FINAL_DATA,00_ALT_SOLID,0,0;                             7P      4
406,4,46,235,237,247,0,0;                                              9P      5
406,2,0,28H00_FINAL_DATA,00_FINAL_SHEET,0,0;                          11P      6
406,4,46,235,237,247,0,0;                                             13P      7
406,2,0,28H00_FINAL_DATA,00_FINAL_CURVE,0,0;                          15P      8
406,4,46,235,237,247,0,0;                                             17P      9
406,2,0,13H00_FINAL_DATA,0,0;                                         19P     10
406,4,46,235,237,247,0,0;                                             21P     11
406,2,0,7H01_BODY,0,0;                                                23P     12
406,4,46,235,237,247,0,0;                                             25P     13
406,2,0,9H02_SKETCH,0,0;                                              27P     14
406,4,46,235,237,247,0,0;                                             29P     15
406,2,0,23H03_DATUM,03_FIXED_DATUM,0,0;                               31P     16
406,4,46,235,237,247,0,0;                                             33P     17
406,2,0,8H03_DATUM,0,0;                                               35P     18
406,4,46,235,237,247,0,0;                                             37P     19
406,2,0,8H04_CURVE,0,0;                                               39P     20
406,4,46,235,237,247,0,0;                                             41P     21
406,2,0,8H05_SHEET,0,0;                                               43P     22
406,4,46,235,237,247,0,0;                                             45P     23
406,2,0,13H06_ANNOTATION,0,0;                                         47P     24
406,4,46,235,237,247,0,0;                                             49P     25
406,2,0,29H07_FLATPATTERN,07_SHEET_METAL,0,0;                         51P     26
406,4,46,235,237,247,0,0;                                             53P     27
406,2,0,14H07_SHEET_METAL,0,0;                                        55P     28
406,4,46,235,237,247,0,0;                                             57P     29
406,2,0,7H08_WAVE,0,0;                                                59P     30
406,4,46,235,237,247,0,0;                                             61P     31
406,2,0,11H09_ELECTRIC,0,0;                                           63P     32
406,4,46,235,237,247,0,0;                                             65P     33
406,2,0,6H10_CAM,0,0;                                                 67P     34
406,4,46,235,237,247,0,0;                                             69P     35
406,2,0,9H11_MOTION,0,0;                                              71P     36
406,4,46,235,237,247,0,0;                                             73P     37
406,2,0,6H12_CAE,0,0;                                                 75P     38
406,4,46,235,237,247,0,0;                                             77P     39
406,2,0,8HRESERVED,0,0;                                               79P     40
406,4,46,235,237,247,0,0;                                             81P     41
406,2,0,9HTEMPORARY,0,0;                                              83P     42
406,4,46,235,237,247,0,0;                                             85P     43
406,2,0,18H13_DRAWING_PATTERN,0,0;                                    87P     44
406,4,46,235,237,247,0,0;                                             89P     45
406,2,0,20H13_DRAWING_DIMENSION,0,0;                                  91P     46
406,4,46,235,237,247,0,0;                                             93P     47
406,2,0,17H13_DRAWING_SYMBOL,0,0;                                     95P     48
406,4,46,235,237,247,0,0;                                             97P     49
406,2,0,24H13_DRAWING_SPECIFICATION,0,0;                              99P     50
406,4,46,235,237,247,0,0;                                            101P     51
406,2,0,27H00_FINAL_DATA,00_MATE_DATUM,0,0;                          103P     52
124,1.0,0.0,0.0,0.0,0.0,1.0,0.0,0.0,0.0,0.0,1.0,0.0,0,0;             105P     53
314,0.0,0.0,100.0,4HBlue,0,0;                                        107P     54
116,0.0,0.0,0.0,0,0,0;                                               109P     55
108,1.0,0.0,0.0,90.75,0,90.75,-100.0,0.0,0.0,0,0;                    111P     56
108,1.0,0.0,0.0,-90.75,0,-90.75,-100.0,0.0,0.0,0,0;                  113P     57
108,0.0,1.0,0.0,-55.32375,0,0.0,-55.32375,0.0,0.0,0,0;               115P     58
108,0.0,1.0,0.0,-144.67625,0,0.0,-144.67625,0.0,0.0,0,0;             117P     59
406,1,3HTOP,0,0;                                                     119P     60
410,1,1.0,113,115,111,117,0,0,0,1,119;                               121P     61
124,1.0,0.0,0.0,0.0,0.0,0.0,1.0,0.0,0.0,-1.0,0.0,0.0,0,0;            123P     62
108,1.0,0.0,0.0,90.75,0,90.75,-100.0,0.0,0.0,0,0;                    125P     63
108,1.0,0.0,0.0,-90.75,0,-90.75,-100.0,0.0,0.0,0,0;                  127P     64
108,0.0,0.0,1.0,331.734041293813,0,0.0,-100.0,331.734041293813,      129P     65
0.0,0,0;                                                             129P     66
108,0.0,0.0,1.0,-331.734041293813,0,0.0,-100.0,                      131P     67
-331.734041293813,0.0,0,0;                                           131P     68
406,1,5HFRONT,0,0;                                                   133P     69
410,2,1.0,127,129,125,131,0,0,0,1,133;                               135P     70
124,0.0,1.0,0.0,0.0,0.0,0.0,1.0,0.0,1.0,0.0,0.0,0.0,0,0;             137P     71
108,0.0,1.0,0.0,-55.32375,0,0.0,-55.32375,0.0,0.0,0,0;               139P     72
108,0.0,1.0,0.0,-144.67625,0,0.0,-144.67625,0.0,0.0,0,0;             141P     73
108,0.0,0.0,1.0,331.734041293813,0,0.0,-100.0,331.734041293813,      143P     74
0.0,0,0;                                                             143P     75
108,0.0,0.0,1.0,-331.734041293813,0,0.0,-100.0,                      145P     76
-331.734041293813,0.0,0,0;                                           145P     77
406,1,5HRIGHT,0,0;                                                   147P     78
410,3,1.0,141,143,139,145,0,0,0,1,147;                               149P     79
124,-1.0,0.0,0.0,0.0,0.0,0.0,1.0,0.0,0.0,1.0,0.0,0.0,0,0;            151P     80
108,-1.0,0.0,0.0,90.75,0,-90.75,-100.0,0.0,0.0,0,0;                  153P     81
108,-1.0,0.0,0.0,-90.75,0,90.75,-100.0,0.0,0.0,0,0;                  155P     82
108,0.0,0.0,1.0,331.734041293813,0,0.0,-100.0,331.734041293813,      157P     83
0.0,0,0;                                                             157P     84
108,0.0,0.0,1.0,-331.734041293813,0,0.0,-100.0,                      159P     85
-331.734041293813,0.0,0,0;                                           159P     86
406,1,4HBACK,0,0;                                                    161P     87
410,4,1.0,155,157,153,159,0,0,0,1,161;                               163P     88
124,1.0,0.0,0.0,0.0,0.0,-1.0,0.0,0.0,0.0,0.0,-1.0,0.0,0,0;           165P     89
108,1.0,0.0,0.0,90.75,0,90.75,-100.0,0.0,0.0,0,0;                    167P     90
108,1.0,0.0,0.0,-90.75,0,-90.75,-100.0,0.0,0.0,0,0;                  169P     91
108,0.0,-1.0,0.0,144.67625,0,0.0,-144.67625,0.0,0.0,0,0;             171P     92
108,0.0,-1.0,0.0,55.32375,0,0.0,-55.32375,0.0,0.0,0,0;               173P     93
406,1,6HBOTTOM,0,0;                                                  175P     94
410,5,1.0,169,171,167,173,0,0,0,1,175;                               177P     95
124,0.0,-1.0,0.0,0.0,0.0,0.0,1.0,0.0,-1.0,0.0,0.0,0.0,0,0;           179P     96
108,0.0,-1.0,0.0,144.67625,0,0.0,-144.67625,0.0,0.0,0,0;             181P     97
108,0.0,-1.0,0.0,55.32375,0,0.0,-55.32375,0.0,0.0,0,0;               183P     98
108,0.0,0.0,1.0,331.734041293813,0,0.0,-100.0,331.734041293813,      185P     99
0.0,0,0;                                                             185P    100
108,0.0,0.0,1.0,-331.734041293813,0,0.0,-100.0,                      187P    101
-331.734041293813,0.0,0,0;                                           187P    102
406,1,4HLEFT,0,0;                                                    189P    103
410,6,1.0,183,185,181,187,0,0,0,1,189;                               191P    104
124,0.707106781186548,0.707106781186548,0.0,0.0,                     193P    105
-0.408248290463863,0.408248290463863,0.816496580927726,0.0,          193P    106
0.577350269189626,-0.577350269189626,0.577350269189626,0.0,0,0;      193P    107
108,0.707106781186548,0.707106781186548,0.0,25.0501416070099,0,      195P    108
67.713125,-32.286875,1.4210854715202E-014,0.0,0,0;                   195P    109
108,0.707106781186548,0.707106781186548,0.0,-166.471497844319,0,     197P    110
-67.713125,-167.713125,1.4210854715202E-014,0.0,0,0;                 197P    111
108,-0.408248290463863,0.408248290463863,0.816496580927726,          199P    112
285.322416493781,0,-133.149055431271,33.1490554312709,               199P    113
266.298110862542,0.0,0,0;                                            199P    114
108,-0.408248290463863,0.408248290463863,0.816496580927726,          201P    115
-366.972074586553,0,133.149055431271,-233.149055431271,              201P    116
-266.298110862542,0.0,0,0;                                           201P    117
406,1,7HTFR-ISO,0,0;                                                 203P    118
410,7,1.0,197,199,195,201,0,0,0,1,203;                               205P    119
124,0.63121905864763,0.775604602874429,0.0,0.0,                      207P    120
-0.291176881826266,0.236971772169955,0.926855114181588,0.0,          207P    121
0.718873092756943,-0.585048612676443,0.375419228750255,0.0,0,0;      207P    122
108,0.63121905864763,0.775604602874429,0.0,14.3737744239982,0,       209P    123
58.0306410920461,-28.6953843960682,1.77635683940025E-014,0.0,0,      209P    124
0;                                                                   209P    125
108,0.63121905864763,0.775604602874429,0.0,-169.494694998884,0,      211P    126
-58.0306410920461,-171.304615603932,1.77635683940025E-014,0.0,0,     211P    127
0;                                                                   211P    128
108,-0.291176881826266,0.236971772169955,0.926855114181588,          213P    129
320.783527666442,0,-100.304817497274,-18.3677968854165,              213P    130
319.283703058093,0.0,0,0;                                            213P    131
108,-0.291176881826266,0.236971772169955,0.926855114181588,          215P    132
-368.177882100433,0,100.304817497273,-181.632203114584,              215P    133
-319.283703058093,0.0,0,0;                                           215P    134
406,1,7HTFR-TRI,0,0;                                                 217P    135
410,8,1.0,211,213,209,215,0,0,0,1,217;                               219P    136
124,1.0,0.0,0.0,0.0,0.0,0.0,-1.0,0.0,0.0,1.0,0.0,0.0,0,0;            221P    137
314,100.0,60.0,0.0,6HOrange,0,0;                                     223P    138
128,6,1,3,1,0,0,0,0,0,0.0,0.0,0.0,0.0,0.5,0.5,0.5,1.0,1.0,1.0,       225P    139
1.0,0.0,0.0,1.0,1.0,1.0,0.333333333333333,0.333333333333333,1.0,     225P    140
0.333333333333333,0.333333333333333,1.0,1.0,0.333333333333333,       225P    141
0.333333333333333,1.0,0.333333333333333,0.333333333333333,1.0,       225P    142
0.0,-200.0,150.0,300.0,-200.0,150.0,300.0,-200.0,-150.0,             225P    143
1.83697019872103E-014,-200.0,-150.0,-300.0,-200.0,-150.0,-300.0,     225P    144
-200.0,150.0,0.0,-200.0,150.0,0.0,0.0,150.0,300.0,0.0,150.0,         225P    145
300.0,0.0,-150.0,1.83697019872103E-014,0.0,-150.0,-300.0,0.0,        225P    146
-150.0,-300.0,0.0,150.0,0.0,0.0,150.0,0.0,1.0,0.0,1.0,0,0;           225P    147
126,1,1,1,0,1,0,0.0,0.0,1.0,1.0,1.0,1.0,0.25,1.0,0.0,0.0,1.0,        227P    148
0.0,0.0,1.0,0.0,0.0,1.0,0,0;                                         227P    149
126,1,1,1,0,1,0,0.0,0.0,1.0,1.0,1.0,1.0,0.0,1.0,0.0,0.0,0.0,0.0,     229P    150
0.0,1.0,0.0,0.0,1.0,0,0;                                             229P    151
126,1,1,1,0,1,0,0.0,0.0,1.0,1.0,1.0,1.0,0.0,0.0,0.0,0.25,0.0,        231P    152
0.0,0.0,1.0,0.0,0.0,1.0,0,0;                                         231P    153
126,1,1,1,0,1,0,0.0,0.0,1.0,1.0,1.0,1.0,0.25,0.0,0.0,1.0,0.0,        233P    154
0.0,0.0,1.0,0.0,0.0,1.0,0,0;                                         233P    155
126,1,1,1,0,1,0,0.0,0.0,1.0,1.0,1.0,1.0,1.0,0.0,0.0,1.0,1.0,0.0,     235P    156
0.0,1.0,0.0,0.0,1.0,0,0;                                             235P    157
126,1,1,1,0,1,0,0.0,0.0,1.0,1.0,1.0,1.0,1.0,1.0,0.0,0.25,1.0,        237P    158
0.0,0.0,1.0,0.0,0.0,1.0,0,0;                                         237P    159
102,6,227,229,231,233,235,237,0,0;                                   239P    160
100,0.0,0.0,0.0,150.0,2.30626388014196E-014,                         241P    161
-2.41218397451495E-014,150.0,0,0;                                    241P    162
110,0.0,0.0,150.0,0.0,-200.0,150.0,0,0;                              243P    163
100,-200.0,0.0,0.0,-2.75545529808154E-014,-150.0,150.0,              245P    164
-3.67394039744206E-014,0,0;                                          245P    165
100,-200.0,0.0,0.0,150.0,0.0,-2.75545529808154E-014,-150.0,0,0;      247P    166
110,0.0,-200.0,150.0,0.0,0.0,150.0,0,0;                              249P    167
100,0.0,0.0,0.0,-2.41218397451495E-014,150.0,150.0,                  251P    168
-3.67394039744206E-014,0,0;                                          251P    169
102,6,241,243,245,247,249,251,0,0;                                   253P    170
142,0,225,239,253,3,0,0;                                             255P    171
144,225,1,0,255,0,0;                                                 257P    172
128,1,1,1,1,0,0,1,0,0,0.0,0.0,1.0,1.0,0.0,0.0,1.0,1.0,1.0,1.0,       259P    173
1.0,1.0,-151.8,0.0,151.8,151.8,0.0,151.8,-151.8,0.0,-151.8,          259P    174
151.8,0.0,-151.8,0.0,1.0,0.0,1.0,0,0;                                259P    175
126,32,2,1,1,1,1,-0.0625,-0.0625,0.0,0.0625,0.0625,0.125,0.125,      261P    176
0.1875,0.1875,0.25,0.25,0.3125,0.3125,0.375,0.375,0.4375,0.4375,     261P    177
0.5,0.5,0.5625,0.5625,0.625,0.625,0.6875,0.6875,0.75,0.75,           261P    178
0.8125,0.8125,0.875,0.875,0.9375,0.9375,1.0,1.0625,1.0625,1.0,       261P    179
1.0,1.0,1.0,1.0,1.0,1.0,1.0,1.0,1.0,1.0,1.0,1.0,1.0,1.0,1.0,1.0,     261P    180
1.0,1.0,1.0,1.0,1.0,1.0,1.0,1.0,1.0,1.0,1.0,1.0,1.0,1.0,1.0,1.0,     261P    181
0.994071146245059,0.598276861353586,0.0,0.994071146245059,           261P    182
0.401723138646414,0.0,0.956462219620201,0.310927157922387,0.0,       261P    183
0.918853292995343,0.220131177198359,0.0,0.849361057898492,           261P    184
0.150638942101508,0.0,0.779868822801641,0.0811467070046573,0.0,      261P    185
0.689072842077614,0.043537780379799,0.0,0.598276861353586,           261P    186
0.00592885375494068,0.0,0.5,0.00592885375494068,0.0,                 261P    187
0.401723138646414,0.00592885375494068,0.0,0.310927157922387,         261P    188
0.043537780379799,0.0,0.220131177198359,0.0811467070046573,0.0,      261P    189
0.150638942101508,0.150638942101508,0.0,0.0811467070046573,          261P    190
0.220131177198359,0.0,0.043537780379799,0.310927157922386,0.0,       261P    191
0.00592885375494068,0.401723138646414,0.0,0.00592885375494068,       261P    192
0.5,0.0,0.00592885375494068,0.598276861353586,0.0,                   261P    193
0.0435377803797991,0.689072842077613,0.0,0.0811467070046575,         261P    194
0.779868822801641,0.0,0.150638942101508,0.849361057898492,0.0,       261P    195
0.220131177198359,0.918853292995342,0.0,0.310927157922386,           261P    196
0.956462219620201,0.0,0.401723138646414,0.994071146245059,0.0,       261P    197
0.5,0.994071146245059,0.0,0.598276861353586,0.994071146245059,       261P    198
0.0,0.689072842077614,0.956462219620201,0.0,0.779868822801641,       261P    199
0.918853292995343,0.0,0.849361057898492,0.849361057898492,0.0,       261P    200
0.918853292995343,0.779868822801641,0.0,0.956462219620201,           261P    201
0.689072842077614,0.0,0.994071146245059,0.598276861353586,0.0,       261P    202
0.994071146245059,0.401723138646414,0.0,0.0,1.0,0.0,0.0,1.0,0,0;     261P    203
100,0.0,0.0,0.0,150.0,9.18485099360515E-015,150.0,                   263P    204
-3.67394039744206E-014,0,0;                                          263P    205
142,0,259,261,263,3,0,0;                                             265P    206
144,259,1,0,265,0,0;                                                 267P    207
128,1,1,1,1,0,0,1,0,0,0.0,0.0,1.0,1.0,0.0,0.0,1.0,1.0,1.0,1.0,       269P    208
1.0,1.0,-151.8,-200.0,151.8,-151.8,-200.0,-151.8,151.8,-200.0,       269P    209
151.8,151.8,-200.0,-151.8,0.0,1.0,0.0,1.0,0,0;                       269P    210
126,32,2,1,1,1,1,-0.0625,-0.0625,0.0,0.0625,0.0625,0.125,0.125,      271P    211
0.1875,0.1875,0.25,0.25,0.3125,0.3125,0.375,0.375,0.4375,0.4375,     271P    212
0.5,0.5,0.5625,0.5625,0.625,0.625,0.6875,0.6875,0.75,0.75,           271P    213
0.8125,0.8125,0.875,0.875,0.9375,0.9375,1.0,1.0625,1.0625,1.0,       271P    214
1.0,1.0,1.0,1.0,1.0,1.0,1.0,1.0,1.0,1.0,1.0,1.0,1.0,1.0,1.0,1.0,     271P    215
1.0,1.0,1.0,1.0,1.0,1.0,1.0,1.0,1.0,1.0,1.0,1.0,1.0,1.0,1.0,1.0,     271P    216
0.598276861353586,0.994071146245059,0.0,0.401723138646414,           271P    217
0.994071146245059,0.0,0.310927157922387,0.956462219620201,0.0,       271P    218
0.220131177198359,0.918853292995343,0.0,0.150638942101508,           271P    219
0.849361057898492,0.0,0.0811467070046573,0.779868822801641,0.0,      271P    220
0.043537780379799,0.689072842077614,0.0,0.00592885375494068,         271P    221
0.598276861353586,0.0,0.00592885375494068,0.5,0.0,                   271P    222
0.00592885375494068,0.401723138646414,0.0,0.043537780379799,         271P    223
0.310927157922387,0.0,0.0811467070046573,0.220131177198359,0.0,      271P    224
0.150638942101508,0.150638942101508,0.0,0.220131177198359,           271P    225
0.0811467070046573,0.0,0.310927157922386,0.043537780379799,0.0,      271P    226
0.401723138646414,0.00592885375494068,0.0,0.5,                       271P    227
0.00592885375494068,0.0,0.598276861353586,0.00592885375494068,       271P    228
0.0,0.689072842077613,0.0435377803797991,0.0,0.779868822801641,      271P    229
0.0811467070046575,0.0,0.849361057898492,0.150638942101508,0.0,      271P    230
0.918853292995342,0.220131177198359,0.0,0.956462219620201,           271P    231
0.310927157922386,0.0,0.994071146245059,0.401723138646414,0.0,       271P    232
0.994071146245059,0.5,0.0,0.994071146245059,0.598276861353586,       271P    233
0.0,0.956462219620201,0.689072842077614,0.0,0.918853292995343,       271P    234
0.779868822801641,0.0,0.849361057898492,0.849361057898492,0.0,       271P    235
0.779868822801641,0.918853292995343,0.0,0.689072842077614,           271P    236
0.956462219620201,0.0,0.598276861353586,0.994071146245059,0.0,       271P    237
0.401723138646414,0.994071146245059,0.0,0.0,1.0,0.0,0.0,1.0,0,0;     271P    238
100,200.0,0.0,0.0,150.0,9.18485099360515E-015,150.0,                 273P    239
-3.67394039744206E-014,0,0;                                          273P    240
142,0,269,271,273,3,0,0;                                             275P    241
144,269,1,0,275,0,0;                                                 277P    242
S      1G      6D    278P    242                                        T      1
